Info:

General
Complete name : Captain America The First Avenger DvDRiP XviD-ChEtAn.avi
Format : AVI
Format/Info : Audio Video Interleave
File size : 703 MiB
Duration : 2h 4mn
Overall bit rate mode : Variable
Overall bit rate : 792 Kbps
Writing application : VirtualDubMod 1.5.4.1 (build 2178/release)
Writing library : VirtualDubMod build 2178/release

Video
ID : 0
Format : MPEG-4 Visual
Format profile : Advanced Simple@L5
Format settings, BVOP : 1
Format settings, QPel : No
Format settings, GMC : No warppoints
Format settings, Matrix : Custom
Codec ID : XVID
Codec ID/Hint : XviD
Duration : 2h 4mn
Bit rate : 663 Kbps
Width : 688 pixels
Height : 304 pixels
Display aspect ratio : 2.25:1
Frame rate : 23.976 fps
Color space : YUV
Chroma subsampling : 4:2:0
Bit depth : 8 bits
Scan type : Progressive
Compression mode : Lossy
Bits/(Pixel*Frame) : 0.132
Stream size : 589 MiB (84%)
Writing library : XviD 1.2.1 (UTC 2008-12-04)

Audio
ID : 1
Format : MPEG Audio
Format version : Version 1
Format profile : Layer 3
Mode : Joint stereo
Mode extension : MS Stereo
Codec ID : 55
Codec ID/Hint : MP3
Duration : 2h 4mn
Bit rate mode : Variable
Bit rate : 116 Kbps
Nominal bit rate : 128 Kbps
Channel(s) : 2 channels
Sampling rate : 48.0 KHz
Compression mode : Lossy
Stream size : 103 MiB (15%)
Alignment : Aligned on interleaves
Interleave, duration : 24 ms (0.58 video frame)
Interleave, preload duration : 159 ms
Writing library : LAME3.98r
Encoding settings : -m j -V 4 -q 2 -lowpass 17 --abr 128
Language : English


SUBTiTLES.......: English
FilE SiZE.......: 703MB
ENCODER.........: etlover
Sample..........: Included in torrent

Screens
 
http://img28.imageshack.us/img28/4995/vlcsnap2011101908h14m14.png
 
http://img831.imageshack.us/img831/4278/vlcsnap2011101908h14m45.png
 
http://img543.imageshack.us/img543/2269/vlcsnap2011101908h14m50.png